<?xml version="1.0" encoding="UTF-8"?>
<svg id="Layer_2" data-name="Layer 2" xmlns="http://www.w3.org/2000/svg" viewBox="0 0 740.83 893.44">
  <defs>
    <style>
      .cls-1 {
        font-family: Montserrat-Regular, Montserrat;
        font-size: 235.71px;
      }

      .cls-1, .cls-2 {
        fill: #01356a;
      }

      .cls-3 {
        fill: #0f84d3;
      }

      .cls-4 {
        letter-spacing: 0em;
      }
    </style>
  </defs>
  <g id="Layer_1-2" data-name="Layer 1">
    <text class="cls-1" transform="translate(0 834.51)"><tspan x="0" y="0">Cla</tspan><tspan class="cls-4" x="376.43" y="0">i</tspan><tspan x="439.83" y="0">TX</tspan></text>
    <path class="cls-2" d="M507.38,527.4h-246.35c-59.86,0-108.56-48.7-108.56-108.56V172.49c0-59.86,48.7-108.56,108.56-108.56h246.35c59.86,0,108.56,48.7,108.56,108.56v246.35c0,59.86-48.7,108.56-108.56,108.56ZM261.03,95.93c-42.22,0-76.56,34.35-76.56,76.56v246.35c0,42.22,34.35,76.56,76.56,76.56h246.35c42.22,0,76.56-34.35,76.56-76.56V172.49c0-42.22-34.35-76.56-76.56-76.56h-246.35Z"/>
    <path class="cls-2" d="M290.45,95.93c-8.84,0-16-7.16-16-16V16c0-8.84,7.16-16,16-16s16,7.16,16,16v63.93c0,8.84-7.16,16-16,16Z"/>
    <path class="cls-2" d="M352.96,95.93c-8.84,0-16-7.16-16-16V16c0-8.84,7.16-16,16-16s16,7.16,16,16v63.93c0,8.84-7.16,16-16,16Z"/>
    <path class="cls-2" d="M415.46,95.93c-8.84,0-16-7.16-16-16V16c0-8.84,7.16-16,16-16s16,7.16,16,16v63.93c0,8.84-7.16,16-16,16Z"/>
    <path class="cls-2" d="M477.97,95.93c-8.84,0-16-7.16-16-16V16c0-8.84,7.16-16,16-16s16,7.16,16,16v63.93c0,8.84-7.16,16-16,16Z"/>
    <path class="cls-2" d="M290.45,595.1c-8.84,0-16-7.16-16-16v-63.93c0-8.84,7.16-16,16-16s16,7.16,16,16v63.93c0,8.84-7.16,16-16,16Z"/>
    <path class="cls-2" d="M352.96,595.1c-8.84,0-16-7.16-16-16v-63.93c0-8.84,7.16-16,16-16s16,7.16,16,16v63.93c0,8.84-7.16,16-16,16Z"/>
    <path class="cls-2" d="M415.46,595.1c-8.84,0-16-7.16-16-16v-63.93c0-8.84,7.16-16,16-16s16,7.16,16,16v63.93c0,8.84-7.16,16-16,16Z"/>
    <path class="cls-2" d="M669.29,245.62h-63.93c-8.84,0-16-7.16-16-16s7.16-16,16-16h63.93c8.84,0,16,7.16,16,16s-7.16,16-16,16Z"/>
    <path class="cls-3" d="M502.48,210.32h-147.91c-8.84,0-16-7.16-16-16s7.16-16,16-16h147.91c8.84,0,16,7.16,16,16s-7.16,16-16,16Z"/>
    <path class="cls-3" d="M393.33,284.19H245.42c-8.84,0-16-7.16-16-16s7.16-16,16-16h147.91c8.84,0,16,7.16,16,16s-7.16,16-16,16Z"/>
    <path class="cls-2" d="M400.14,454.78c-4.09,0-8.19-1.56-11.31-4.69l-49.56-49.56c-6.25-6.25-6.25-16.38,0-22.63,6.25-6.25,16.38-6.25,22.63,0l49.56,49.56c6.25,6.25,6.25,16.38,0,22.63-3.12,3.12-7.22,4.69-11.31,4.69Z"/>
    <path class="cls-2" d="M401.77,454.78c-4.09,0-8.19-1.56-11.31-4.69-6.25-6.25-6.25-16.38,0-22.63l130.05-130.05c6.25-6.25,16.38-6.25,22.63,0,6.25,6.25,6.25,16.38,0,22.63l-130.05,130.05c-3.12,3.12-7.22,4.69-11.31,4.69Z"/>
    <path class="cls-2" d="M669.29,311.67h-63.93c-8.84,0-16-7.16-16-16s7.16-16,16-16h63.93c8.84,0,16,7.16,16,16s-7.16,16-16,16Z"/>
    <path class="cls-2" d="M669.29,377.71h-63.93c-8.84,0-16-7.16-16-16s7.16-16,16-16h63.93c8.84,0,16,7.16,16,16s-7.16,16-16,16Z"/>
    <path class="cls-2" d="M168.47,245.62h-63.93c-8.84,0-16-7.16-16-16s7.16-16,16-16h63.93c8.84,0,16,7.16,16,16s-7.16,16-16,16Z"/>
    <path class="cls-2" d="M168.47,311.67h-63.93c-8.84,0-16-7.16-16-16s7.16-16,16-16h63.93c8.84,0,16,7.16,16,16s-7.16,16-16,16Z"/>
    <path class="cls-2" d="M168.47,377.71h-63.93c-8.84,0-16-7.16-16-16s7.16-16,16-16h63.93c8.84,0,16,7.16,16,16s-7.16,16-16,16Z"/>
    <path class="cls-2" d="M477.97,595.1c-8.84,0-16-7.16-16-16v-63.93c0-8.84,7.16-16,16-16s16,7.16,16,16v63.93c0,8.84-7.16,16-16,16Z"/>
  </g>
</svg>