<?xml version="1.0" encoding="UTF-8"?>
<svg id="Layer_1" data-name="Layer 1" xmlns="http://www.w3.org/2000/svg" viewBox="0 0 1093.27 1160.83">
  <defs>
    <style>
      .cls-1 {
        fill: #01356a;
      }

      .cls-2 {
        fill: #fff;
      }

      .cls-3 {
        fill: #0f84d3;
      }
    </style>
  </defs>
  <g>
    <path class="cls-1" d="M280.25,790.13c-26.09,0-48.01,8.49-65.15,25.23-17.16,16.76-25.86,37.98-25.86,63.07s8.54,46.16,25.39,62.6c16.83,16.43,38.27,24.75,63.74,24.75s47.53-10.03,65.38-29.82c.88-.98,.85-2.48-.07-3.42l-17.91-18.39c-.95-.97-2.51-1.01-3.5-.08-7.32,6.86-14.39,11.91-21.03,15-6.55,3.05-14.52,4.6-23.69,4.6-14.64,0-27.49-5.42-38.19-16.12-10.7-10.69-16.12-24.21-16.12-40.19s5.45-29.21,16.19-39.44c10.78-10.26,24.32-15.46,40.23-15.46,9.04,0,17,1.44,23.65,4.28,6.68,2.86,13.92,8,21.53,15.3,.49,.47,1.14,.72,1.81,.7,.67-.02,1.31-.31,1.76-.81l17.68-19.33c.87-.95,.87-2.41,0-3.37-17.54-19.31-39.7-29.11-65.85-29.11Z"/>
    <rect class="cls-1" x="369.56" y="784" width="31.4" height="179.9" rx="2.5" ry="2.5"/>
    <path class="cls-1" d="M525.77,843.36c-9.76-7.79-22.46-11.74-37.74-11.74-19.82,0-37.79,6.29-53.41,18.69-1.04,.83-1.25,2.33-.48,3.41l11.79,16.5c.79,1.1,2.31,1.38,3.43,.62,12.09-8.16,23.83-12.3,34.9-12.3,17.27,0,25.31,7.15,25.31,22.49v2.21h-31.68c-15.99,0-28.91,3.24-38.4,9.62-9.81,6.59-14.78,16.61-14.78,29.77s4.61,23.63,13.71,31.48c8.99,7.75,20.44,11.69,34.04,11.69,15.78,0,28.94-4.97,39.22-14.79v10.4c0,1.38,1.12,2.5,2.5,2.5h24.04c1.38,0,2.5-1.12,2.5-2.5v-80.85c0-16.75-5.04-29.26-14.96-37.19Zm-24.86,88.46c-5.82,4.36-12.73,6.57-20.54,6.57s-14-1.48-18.27-4.4c-4.03-2.75-5.98-6.66-5.98-11.96,0-3.81,0-15.41,26.02-15.41h27.2v8.11c0,7.25-2.76,12.84-8.43,17.09Z"/>
    <rect class="cls-1" x="572.5" y="833.5" width="31.4" height="130.4" rx="2.5" ry="2.5"/>
    <path class="cls-1" d="M588.44,779.99c-5.22,0-9.78,1.91-13.55,5.68-3.77,3.77-5.68,8.33-5.68,13.55s1.91,9.78,5.68,13.55c3.77,3.77,8.33,5.68,13.55,5.68s9.78-1.91,13.55-5.68c3.77-3.77,5.68-8.33,5.68-13.55s-1.91-9.78-5.68-13.55c-3.77-3.77-8.33-5.68-13.55-5.68Z"/>
    <path class="cls-1" d="M754.38,794.13h-127.76c-1.38,0-2.5,1.12-2.5,2.5v25.46c0,1.38,1.12,2.5,2.5,2.5h47.47v136.81c0,1.38,1.12,2.5,2.5,2.5h27.81c1.38,0,2.5-1.12,2.5-2.5v-136.81h47.47c1.38,0,2.5-1.12,2.5-2.5v-25.46c0-1.38-1.12-2.5-2.5-2.5Z"/>
    <path class="cls-1" d="M918.86,960.01l-55.65-83.25,51.66-78.76c.5-.77,.55-1.75,.11-2.56-.44-.81-1.28-1.31-2.2-1.31h-34.41c-.84,0-1.62,.42-2.09,1.12l-35.28,53.37-35.27-53.37c-.46-.7-1.25-1.12-2.09-1.12h-34.41c-.92,0-1.76,.5-2.2,1.31-.44,.81-.39,1.79,.11,2.56l51.66,78.76-55.65,83.25c-.51,.77-.56,1.75-.13,2.57,.43,.81,1.28,1.32,2.21,1.32h34.65c.84,0,1.63-.43,2.09-1.13l39.04-59.7,39.04,59.7c.46,.71,1.25,1.13,2.09,1.13h34.65c.92,0,1.77-.51,2.21-1.32,.43-.81,.39-1.8-.13-2.57Z"/>
  </g>
  <rect class="cls-2" x="346.93" y="205.79" width="433.51" height="433.51" rx="83.09" ry="83.09"/>
  <path class="cls-3" d="M681.96,337.21h-147.91c-8.84,0-16-7.16-16-16s7.16-16,16-16h147.91c8.84,0,16,7.16,16,16s-7.16,16-16,16Z"/>
  <path class="cls-3" d="M572.81,411.07h-147.91c-8.84,0-16-7.16-16-16s7.16-16,16-16h147.91c8.84,0,16,7.16,16,16s-7.16,16-16,16Z"/>
  <path class="cls-1" d="M722.62,424.29c-6.25-6.25-16.38-6.25-22.63,0l-119.56,119.56-39.06-39.06c-6.25-6.25-16.38-6.25-22.63,0-6.25,6.25-6.25,16.38,0,22.63l49.56,49.56c3.12,3.12,7.22,4.69,11.31,4.69,.27,0,.54-.03,.82-.04,.27,.01,.54,.04,.82,.04,4.09,0,8.19-1.56,11.31-4.69l130.05-130.05c6.25-6.25,6.25-16.38,0-22.63Z"/>
  <path class="cls-1" d="M848.77,438.55c8.84,0,16-7.16,16-16s-7.16-16-16-16h-53.34v-34.04h53.34c8.84,0,16-7.16,16-16s-7.16-16-16-16h-53.34v-41.13c0-59.86-48.7-108.56-108.56-108.56h-13.42v-47.93c0-8.84-7.16-16-16-16s-16,7.16-16,16v47.93h-30.51v-47.93c0-8.84-7.16-16-16-16s-16,7.16-16,16v47.93h-30.51v-47.93c0-8.84-7.16-16-16-16s-16,7.16-16,16v47.93h-30.51v-47.93c0-8.84-7.16-16-16-16s-16,7.16-16,16v47.93h-13.42c-59.86,0-108.56,48.7-108.56,108.56v41.13h-47.93c-8.84,0-16,7.16-16,16s7.16,16,16,16h47.93v34.04h-47.93c-8.84,0-16,7.16-16,16s7.16,16,16,16h47.93v34.04h-47.93c-8.84,0-16,7.16-16,16s7.16,16,16,16h47.93v41.13c0,59.86,48.7,108.56,108.56,108.56h13.42v51.7c0,8.84,7.16,16,16,16s16-7.16,16-16v-51.7h30.51v51.7c0,8.84,7.16,16,16,16s16-7.16,16-16v-51.7h30.51v51.7c0,8.84,7.16,16,16,16s16-7.16,16-16v-51.7h30.51v51.7c0,8.84,7.16,16,16,16s16-7.16,16-16v-51.7h13.42c59.86,0,108.56-48.7,108.56-108.56v-41.13h53.34c8.84,0,16-7.16,16-16s-7.16-16-16-16h-53.34v-34.04h53.34Zm-85.34,107.18c0,42.22-34.35,76.56-76.56,76.56h-246.35c-42.22,0-76.56-34.35-76.56-76.56v-246.35c0-42.22,34.35-76.56,76.56-76.56h246.35c42.22,0,76.56,34.35,76.56,76.56v246.35Z"/>
</svg>