<?xml version="1.0" encoding="UTF-8"?>
<svg id="Layer_2" data-name="Layer 2" xmlns="http://www.w3.org/2000/svg" viewBox="0 0 596.75 595.1">
  <defs>
    <style>
      .cls-1 {
        fill: #01356a;
      }

      .cls-2 {
        fill: #fff;
      }

      .cls-3 {
        fill: #0f84d3;
      }
    </style>
  </defs>
  <g id="Layer_1-2" data-name="Layer 1">
    <g>
      <rect class="cls-2" x="78.91" y="78.91" width="433.51" height="433.51" rx="83.09" ry="83.09"/>
      <path class="cls-3" d="M413.93,210.32h-147.91c-8.84,0-16-7.16-16-16s7.16-16,16-16h147.91c8.84,0,16,7.16,16,16s-7.16,16-16,16Z"/>
      <path class="cls-3" d="M304.79,284.19H156.88c-8.84,0-16-7.16-16-16s7.16-16,16-16h147.91c8.84,0,16,7.16,16,16s-7.16,16-16,16Z"/>
      <path class="cls-1" d="M454.59,297.41c-6.25-6.25-16.38-6.25-22.63,0l-119.56,119.56-39.06-39.06c-6.25-6.25-16.38-6.25-22.63,0-6.25,6.25-6.25,16.38,0,22.63l49.56,49.56c3.12,3.12,7.22,4.69,11.31,4.69,.27,0,.54-.03,.82-.04,.27,.01,.54,.04,.82,.04,4.09,0,8.19-1.56,11.31-4.69l130.05-130.05c6.25-6.25,6.25-16.38,0-22.63Z"/>
      <path class="cls-1" d="M580.75,311.67c8.84,0,16-7.16,16-16s-7.16-16-16-16h-53.34v-34.04h53.34c8.84,0,16-7.16,16-16s-7.16-16-16-16h-53.34v-41.13c0-59.86-48.7-108.56-108.56-108.56h-13.42V16c0-8.84-7.16-16-16-16s-16,7.16-16,16V63.93h-30.51V16c0-8.84-7.16-16-16-16s-16,7.16-16,16V63.93h-30.51V16c0-8.84-7.16-16-16-16s-16,7.16-16,16V63.93h-30.51V16c0-8.84-7.16-16-16-16s-16,7.16-16,16V63.93h-13.42c-59.86,0-108.56,48.7-108.56,108.56v41.13H16c-8.84,0-16,7.16-16,16s7.16,16,16,16H63.93v34.04H16c-8.84,0-16,7.16-16,16s7.16,16,16,16H63.93v34.04H16c-8.84,0-16,7.16-16,16s7.16,16,16,16H63.93v41.13c0,59.86,48.7,108.56,108.56,108.56h13.42v51.7c0,8.84,7.16,16,16,16s16-7.16,16-16v-51.7h30.51v51.7c0,8.84,7.16,16,16,16s16-7.16,16-16v-51.7h30.51v51.7c0,8.84,7.16,16,16,16s16-7.16,16-16v-51.7h30.51v51.7c0,8.84,7.16,16,16,16s16-7.16,16-16v-51.7h13.42c59.86,0,108.56-48.7,108.56-108.56v-41.13h53.34c8.84,0,16-7.16,16-16s-7.16-16-16-16h-53.34v-34.04h53.34Zm-85.34,107.18c0,42.22-34.35,76.56-76.56,76.56H172.49c-42.22,0-76.56-34.35-76.56-76.56V172.49c0-42.22,34.35-76.56,76.56-76.56h246.35c42.22,0,76.56,34.35,76.56,76.56v246.35Z"/>
    </g>
  </g>
</svg>